<svg width="142" height="25" viewBox="0 0 142 25" fill="none" xmlns="http://www.w3.org/2000/svg">
<rect width="141.667" height="25" rx="5" fill="#ABABAB" fill-opacity="0.2"/>
<path d="M50.8231 10.4545C50.7719 10.0227 50.5646 9.6875 50.2009 9.44886C49.8373 9.21023 49.3913 9.09091 48.8628 9.09091C48.4765 9.09091 48.1384 9.15341 47.8486 9.27841C47.5617 9.40341 47.3373 9.57528 47.1753 9.79403C47.0163 10.0128 46.9367 10.2614 46.9367 10.5398C46.9367 10.7727 46.9921 10.973 47.1029 11.1406C47.2165 11.3054 47.3614 11.4432 47.5376 11.554C47.7137 11.6619 47.8984 11.7514 48.0915 11.8224C48.2847 11.8906 48.4623 11.946 48.6242 11.9886L49.5106 12.2273C49.7378 12.2869 49.9907 12.3693 50.2691 12.4744C50.5503 12.5795 50.8188 12.723 51.0745 12.9048C51.333 13.0838 51.5461 13.3139 51.7137 13.5952C51.8813 13.8764 51.9651 14.2216 51.9651 14.6307C51.9651 15.1023 51.8415 15.5284 51.5944 15.9091C51.3501 16.2898 50.9921 16.5923 50.5205 16.8168C50.0518 17.0412 49.4822 17.1534 48.8117 17.1534C48.1867 17.1534 47.6455 17.0526 47.1881 16.8509C46.7336 16.6491 46.3756 16.3679 46.1143 16.0071C45.8557 15.6463 45.7094 15.2273 45.6753 14.75H46.7663C46.7947 15.0795 46.9055 15.3523 47.0986 15.5682C47.2947 15.7812 47.5418 15.9403 47.8401 16.0455C48.1413 16.1477 48.4651 16.1989 48.8117 16.1989C49.2151 16.1989 49.5773 16.1335 49.8984 16.0028C50.2194 15.8693 50.4736 15.6847 50.6611 15.4489C50.8486 15.2102 50.9424 14.9318 50.9424 14.6136C50.9424 14.3239 50.8614 14.0881 50.6995 13.9062C50.5376 13.7244 50.3245 13.5767 50.0603 13.4631C49.7961 13.3494 49.5106 13.25 49.2038 13.1648L48.1299 12.858C47.4481 12.6619 46.9083 12.3821 46.5106 12.0185C46.1128 11.6548 45.914 11.179 45.914 10.5909C45.914 10.1023 46.0461 9.67614 46.3103 9.3125C46.5773 8.94602 46.9353 8.66193 47.3842 8.46023C47.8359 8.25568 48.3401 8.15341 48.8969 8.15341C49.4594 8.15341 49.9594 8.25426 50.3969 8.45597C50.8344 8.65483 51.181 8.92756 51.4367 9.27415C51.6952 9.62074 51.8316 10.0142 51.8458 10.4545H50.8231ZM56.3106 17.1364C55.68 17.1364 55.1359 16.9972 54.6785 16.7188C54.224 16.4375 53.8731 16.0455 53.626 15.5426C53.3817 15.0369 53.2595 14.4489 53.2595 13.7784C53.2595 13.108 53.3817 12.517 53.626 12.0057C53.8731 11.4915 54.2169 11.0909 54.6572 10.804C55.1004 10.5142 55.6175 10.3693 56.2084 10.3693C56.5493 10.3693 56.8859 10.4261 57.2183 10.5398C57.5507 10.6534 57.8533 10.8381 58.126 11.0938C58.3987 11.3466 58.616 11.6818 58.778 12.0994C58.9399 12.517 59.0209 13.0312 59.0209 13.642V14.0682H53.9754V13.1989H57.9981C57.9981 12.8295 57.9243 12.5 57.7766 12.2102C57.6317 11.9205 57.4243 11.6918 57.1544 11.5241C56.8874 11.3565 56.572 11.2727 56.2084 11.2727C55.8078 11.2727 55.4612 11.3722 55.1686 11.571C54.8788 11.767 54.6558 12.0227 54.4996 12.3381C54.3433 12.6534 54.2652 12.9915 54.2652 13.3523V13.9318C54.2652 14.4261 54.3504 14.8452 54.5209 15.1889C54.6942 15.5298 54.9342 15.7898 55.241 15.9688C55.5479 16.1449 55.9044 16.233 56.3106 16.233C56.5749 16.233 56.8135 16.196 57.0266 16.1222C57.2425 16.0455 57.4285 15.9318 57.5848 15.7812C57.741 15.6278 57.8618 15.4375 57.947 15.2102L58.9186 15.483C58.8163 15.8125 58.6445 16.1023 58.403 16.3523C58.1615 16.5994 57.8632 16.7926 57.5081 16.9318C57.153 17.0682 56.7538 17.1364 56.3106 17.1364ZM63.2098 17.1364C62.5962 17.1364 62.0677 16.9915 61.6246 16.7017C61.1814 16.4119 60.8405 16.0128 60.6018 15.5043C60.3632 14.9957 60.2439 14.4148 60.2439 13.7614C60.2439 13.0966 60.366 12.5099 60.6104 12.0014C60.8575 11.4901 61.2013 11.0909 61.6416 10.804C62.0848 10.5142 62.6018 10.3693 63.1927 10.3693C63.653 10.3693 64.0677 10.4545 64.4371 10.625C64.8064 10.7955 65.1089 11.0341 65.3447 11.3409C65.5805 11.6477 65.7268 12.0057 65.7837 12.4148H64.778C64.7013 12.1165 64.5308 11.8523 64.2666 11.6222C64.0052 11.3892 63.653 11.2727 63.2098 11.2727C62.8177 11.2727 62.474 11.375 62.1785 11.5795C61.8859 11.7812 61.6572 12.0668 61.4925 12.4361C61.3305 12.8026 61.2496 13.233 61.2496 13.7273C61.2496 14.233 61.3291 14.6733 61.4882 15.0483C61.6501 15.4233 61.8774 15.7145 62.17 15.9219C62.4655 16.1293 62.8121 16.233 63.2098 16.233C63.4712 16.233 63.7084 16.1875 63.9214 16.0966C64.1345 16.0057 64.3149 15.875 64.4626 15.7045C64.6104 15.5341 64.7155 15.3295 64.778 15.0909H65.7837C65.7268 15.4773 65.5862 15.8253 65.3618 16.1349C65.1402 16.4418 64.8462 16.6861 64.4797 16.8679C64.116 17.0469 63.6927 17.1364 63.2098 17.1364ZM70.1004 10.4545V11.3068H66.7084V10.4545H70.1004ZM67.697 8.88636H68.7027V15.125C68.7027 15.4091 68.7439 15.6222 68.8263 15.7642C68.9115 15.9034 69.0195 15.9972 69.1501 16.0455C69.2837 16.0909 69.4243 16.1136 69.572 16.1136C69.6828 16.1136 69.7737 16.108 69.8447 16.0966C69.9158 16.0824 69.9726 16.071 70.0152 16.0625L70.2197 16.9659C70.1516 16.9915 70.0564 17.017 69.9342 17.0426C69.8121 17.071 69.6572 17.0852 69.4697 17.0852C69.1856 17.0852 68.9072 17.0241 68.6345 16.902C68.3646 16.7798 68.1402 16.5938 67.9612 16.3438C67.7851 16.0938 67.697 15.7784 67.697 15.3977V8.88636ZM71.6132 17V10.4545H72.6189V17H71.6132ZM72.1246 9.36364C71.9285 9.36364 71.7595 9.29688 71.6175 9.16335C71.4783 9.02983 71.4087 8.86932 71.4087 8.68182C71.4087 8.49432 71.4783 8.33381 71.6175 8.20028C71.7595 8.06676 71.9285 8 72.1246 8C72.3206 8 72.4882 8.06676 72.6274 8.20028C72.7695 8.33381 72.8405 8.49432 72.8405 8.68182C72.8405 8.86932 72.7695 9.02983 72.6274 9.16335C72.4882 9.29688 72.3206 9.36364 72.1246 9.36364ZM77.12 17.1364C76.529 17.1364 76.0106 16.9957 75.5646 16.7145C75.1214 16.4332 74.7748 16.0398 74.5248 15.5341C74.2776 15.0284 74.154 14.4375 74.154 13.7614C74.154 13.0795 74.2776 12.4844 74.5248 11.9759C74.7748 11.4673 75.1214 11.0724 75.5646 10.7912C76.0106 10.5099 76.529 10.3693 77.12 10.3693C77.7109 10.3693 78.2279 10.5099 78.6711 10.7912C79.1171 11.0724 79.4637 11.4673 79.7109 11.9759C79.9609 12.4844 80.0859 13.0795 80.0859 13.7614C80.0859 14.4375 79.9609 15.0284 79.7109 15.5341C79.4637 16.0398 79.1171 16.4332 78.6711 16.7145C78.2279 16.9957 77.7109 17.1364 77.12 17.1364ZM77.12 16.233C77.5688 16.233 77.9381 16.1179 78.2279 15.8878C78.5177 15.6577 78.7322 15.3551 78.8714 14.9801C79.0106 14.6051 79.0802 14.1989 79.0802 13.7614C79.0802 13.3239 79.0106 12.9162 78.8714 12.5384C78.7322 12.1605 78.5177 11.8551 78.2279 11.6222C77.9381 11.3892 77.5688 11.2727 77.12 11.2727C76.6711 11.2727 76.3018 11.3892 76.012 11.6222C75.7222 11.8551 75.5077 12.1605 75.3685 12.5384C75.2293 12.9162 75.1597 13.3239 75.1597 13.7614C75.1597 14.1989 75.2293 14.6051 75.3685 14.9801C75.5077 15.3551 75.7222 15.6577 76.012 15.8878C76.3018 16.1179 76.6711 16.233 77.12 16.233ZM82.6267 13.0625V17H81.621V10.4545H82.5926V11.4773H82.6778C82.8312 11.1449 83.0642 10.8778 83.3767 10.6761C83.6892 10.4716 84.0926 10.3693 84.5869 10.3693C85.0301 10.3693 85.4179 10.4602 85.7503 10.642C86.0827 10.821 86.3412 11.0938 86.5258 11.4602C86.7105 11.8239 86.8028 12.2841 86.8028 12.8409V17H85.7972V12.9091C85.7972 12.3949 85.6636 11.9943 85.3966 11.7074C85.1295 11.4176 84.7631 11.2727 84.2972 11.2727C83.9761 11.2727 83.6892 11.3423 83.4364 11.4815C83.1864 11.6207 82.9889 11.8239 82.844 12.0909C82.6991 12.358 82.6267 12.6818 82.6267 13.0625ZM95.0667 8.27273V17H94.0099V9.38068H93.9587L91.828 10.7955V9.72159L94.0099 8.27273H95.0667Z" fill="#DFDFDF" fill-opacity="0.8"/>
</svg>
