<svg width="143" height="25" viewBox="0 0 143 25" fill="none" xmlns="http://www.w3.org/2000/svg">
<rect x="0.666626" width="141.667" height="25" rx="5" fill="#ABABAB" fill-opacity="0.2"/>
<path d="M50.646 10.4545C50.5948 10.0227 50.3874 9.6875 50.0238 9.44886C49.6602 9.21023 49.2141 9.09091 48.6857 9.09091C48.2994 9.09091 47.9613 9.15341 47.6715 9.27841C47.3846 9.40341 47.1602 9.57528 46.9982 9.79403C46.8391 10.0128 46.7596 10.2614 46.7596 10.5398C46.7596 10.7727 46.815 10.973 46.9258 11.1406C47.0394 11.3054 47.1843 11.4432 47.3604 11.554C47.5366 11.6619 47.7212 11.7514 47.9144 11.8224C48.1076 11.8906 48.2852 11.946 48.4471 11.9886L49.3335 12.2273C49.5607 12.2869 49.8136 12.3693 50.092 12.4744C50.3732 12.5795 50.6417 12.723 50.8974 12.9048C51.1559 13.0838 51.369 13.3139 51.5366 13.5952C51.7042 13.8764 51.788 14.2216 51.788 14.6307C51.788 15.1023 51.6644 15.5284 51.4173 15.9091C51.1729 16.2898 50.815 16.5923 50.3434 16.8168C49.8746 17.0412 49.305 17.1534 48.6346 17.1534C48.0096 17.1534 47.4684 17.0526 47.011 16.8509C46.5565 16.6491 46.1985 16.3679 45.9371 16.0071C45.6786 15.6463 45.5323 15.2273 45.4982 14.75H46.5891C46.6175 15.0795 46.7283 15.3523 46.9215 15.5682C47.1175 15.7812 47.3647 15.9403 47.663 16.0455C47.9641 16.1477 48.288 16.1989 48.6346 16.1989C49.038 16.1989 49.4002 16.1335 49.7212 16.0028C50.0423 15.8693 50.2965 15.6847 50.484 15.4489C50.6715 15.2102 50.7653 14.9318 50.7653 14.6136C50.7653 14.3239 50.6843 14.0881 50.5224 13.9062C50.3604 13.7244 50.1474 13.5767 49.8832 13.4631C49.619 13.3494 49.3335 13.25 49.0266 13.1648L47.9528 12.858C47.271 12.6619 46.7312 12.3821 46.3335 12.0185C45.9357 11.6548 45.7369 11.179 45.7369 10.5909C45.7369 10.1023 45.869 9.67614 46.1332 9.3125C46.4002 8.94602 46.7582 8.66193 47.207 8.46023C47.6587 8.25568 48.163 8.15341 48.7198 8.15341C49.2823 8.15341 49.7823 8.25426 50.2198 8.45597C50.6573 8.65483 51.0039 8.92756 51.2596 9.27415C51.5181 9.62074 51.6545 10.0142 51.6687 10.4545H50.646ZM56.1335 17.1364C55.5028 17.1364 54.9588 16.9972 54.5014 16.7188C54.0469 16.4375 53.696 16.0455 53.4489 15.5426C53.2045 15.0369 53.0824 14.4489 53.0824 13.7784C53.0824 13.108 53.2045 12.517 53.4489 12.0057C53.696 11.4915 54.0398 11.0909 54.4801 10.804C54.9233 10.5142 55.4403 10.3693 56.0312 10.3693C56.3722 10.3693 56.7088 10.4261 57.0412 10.5398C57.3736 10.6534 57.6761 10.8381 57.9489 11.0938C58.2216 11.3466 58.4389 11.6818 58.6009 12.0994C58.7628 12.517 58.8438 13.0312 58.8438 13.642V14.0682H53.7983V13.1989H57.821C57.821 12.8295 57.7472 12.5 57.5994 12.2102C57.4545 11.9205 57.2472 11.6918 56.9773 11.5241C56.7102 11.3565 56.3949 11.2727 56.0312 11.2727C55.6307 11.2727 55.2841 11.3722 54.9915 11.571C54.7017 11.767 54.4787 12.0227 54.3224 12.3381C54.1662 12.6534 54.0881 12.9915 54.0881 13.3523V13.9318C54.0881 14.4261 54.1733 14.8452 54.3438 15.1889C54.517 15.5298 54.7571 15.7898 55.0639 15.9688C55.3707 16.1449 55.7273 16.233 56.1335 16.233C56.3977 16.233 56.6364 16.196 56.8494 16.1222C57.0653 16.0455 57.2514 15.9318 57.4077 15.7812C57.5639 15.6278 57.6847 15.4375 57.7699 15.2102L58.7415 15.483C58.6392 15.8125 58.4673 16.1023 58.2259 16.3523C57.9844 16.5994 57.6861 16.7926 57.331 16.9318C56.9759 17.0682 56.5767 17.1364 56.1335 17.1364ZM63.0327 17.1364C62.419 17.1364 61.8906 16.9915 61.4474 16.7017C61.0043 16.4119 60.6634 16.0128 60.4247 15.5043C60.1861 14.9957 60.0668 14.4148 60.0668 13.7614C60.0668 13.0966 60.1889 12.5099 60.4332 12.0014C60.6804 11.4901 61.0241 11.0909 61.4645 10.804C61.9077 10.5142 62.4247 10.3693 63.0156 10.3693C63.4759 10.3693 63.8906 10.4545 64.2599 10.625C64.6293 10.7955 64.9318 11.0341 65.1676 11.3409C65.4034 11.6477 65.5497 12.0057 65.6065 12.4148H64.6009C64.5241 12.1165 64.3537 11.8523 64.0895 11.6222C63.8281 11.3892 63.4759 11.2727 63.0327 11.2727C62.6406 11.2727 62.2969 11.375 62.0014 11.5795C61.7088 11.7812 61.4801 12.0668 61.3153 12.4361C61.1534 12.8026 61.0724 13.233 61.0724 13.7273C61.0724 14.233 61.152 14.6733 61.3111 15.0483C61.473 15.4233 61.7003 15.7145 61.9929 15.9219C62.2884 16.1293 62.6349 16.233 63.0327 16.233C63.294 16.233 63.5312 16.1875 63.7443 16.0966C63.9574 16.0057 64.1378 15.875 64.2855 15.7045C64.4332 15.5341 64.5384 15.3295 64.6009 15.0909H65.6065C65.5497 15.4773 65.4091 15.8253 65.1847 16.1349C64.9631 16.4418 64.669 16.6861 64.3026 16.8679C63.9389 17.0469 63.5156 17.1364 63.0327 17.1364ZM69.9233 10.4545V11.3068H66.5312V10.4545H69.9233ZM67.5199 8.88636H68.5256V15.125C68.5256 15.4091 68.5668 15.6222 68.6491 15.7642C68.7344 15.9034 68.8423 15.9972 68.973 16.0455C69.1065 16.0909 69.2472 16.1136 69.3949 16.1136C69.5057 16.1136 69.5966 16.108 69.6676 16.0966C69.7386 16.0824 69.7955 16.071 69.8381 16.0625L70.0426 16.9659C69.9744 16.9915 69.8793 17.017 69.7571 17.0426C69.6349 17.071 69.4801 17.0852 69.2926 17.0852C69.0085 17.0852 68.7301 17.0241 68.4574 16.902C68.1875 16.7798 67.9631 16.5938 67.7841 16.3438C67.608 16.0938 67.5199 15.7784 67.5199 15.3977V8.88636ZM71.4361 17V10.4545H72.4418V17H71.4361ZM71.9474 9.36364C71.7514 9.36364 71.5824 9.29688 71.4403 9.16335C71.3011 9.02983 71.2315 8.86932 71.2315 8.68182C71.2315 8.49432 71.3011 8.33381 71.4403 8.20028C71.5824 8.06676 71.7514 8 71.9474 8C72.1435 8 72.3111 8.06676 72.4503 8.20028C72.5923 8.33381 72.6634 8.49432 72.6634 8.68182C72.6634 8.86932 72.5923 9.02983 72.4503 9.16335C72.3111 9.29688 72.1435 9.36364 71.9474 9.36364ZM76.9428 17.1364C76.3519 17.1364 75.8335 16.9957 75.3874 16.7145C74.9442 16.4332 74.5977 16.0398 74.3477 15.5341C74.1005 15.0284 73.9769 14.4375 73.9769 13.7614C73.9769 13.0795 74.1005 12.4844 74.3477 11.9759C74.5977 11.4673 74.9442 11.0724 75.3874 10.7912C75.8335 10.5099 76.3519 10.3693 76.9428 10.3693C77.5337 10.3693 78.0508 10.5099 78.494 10.7912C78.94 11.0724 79.2866 11.4673 79.5337 11.9759C79.7837 12.4844 79.9087 13.0795 79.9087 13.7614C79.9087 14.4375 79.7837 15.0284 79.5337 15.5341C79.2866 16.0398 78.94 16.4332 78.494 16.7145C78.0508 16.9957 77.5337 17.1364 76.9428 17.1364ZM76.9428 16.233C77.3917 16.233 77.761 16.1179 78.0508 15.8878C78.3406 15.6577 78.555 15.3551 78.6942 14.9801C78.8335 14.6051 78.9031 14.1989 78.9031 13.7614C78.9031 13.3239 78.8335 12.9162 78.6942 12.5384C78.555 12.1605 78.3406 11.8551 78.0508 11.6222C77.761 11.3892 77.3917 11.2727 76.9428 11.2727C76.494 11.2727 76.1246 11.3892 75.8349 11.6222C75.5451 11.8551 75.3306 12.1605 75.1914 12.5384C75.0522 12.9162 74.9826 13.3239 74.9826 13.7614C74.9826 14.1989 75.0522 14.6051 75.1914 14.9801C75.3306 15.3551 75.5451 15.6577 75.8349 15.8878C76.1246 16.1179 76.494 16.233 76.9428 16.233ZM82.4496 13.0625V17H81.4439V10.4545H82.4155V11.4773H82.5007C82.6541 11.1449 82.8871 10.8778 83.1996 10.6761C83.5121 10.4716 83.9155 10.3693 84.4098 10.3693C84.853 10.3693 85.2408 10.4602 85.5732 10.642C85.9055 10.821 86.1641 11.0938 86.3487 11.4602C86.5334 11.8239 86.6257 12.2841 86.6257 12.8409V17H85.62V12.9091C85.62 12.3949 85.4865 11.9943 85.2195 11.7074C84.9524 11.4176 84.5859 11.2727 84.12 11.2727C83.799 11.2727 83.5121 11.3423 83.2592 11.4815C83.0092 11.6207 82.8118 11.8239 82.6669 12.0909C82.522 12.358 82.4496 12.6818 82.4496 13.0625ZM91.8214 17V16.233L94.7021 13.0795C95.0401 12.7102 95.3185 12.3892 95.5373 12.1165C95.756 11.8409 95.918 11.5824 96.0231 11.3409C96.131 11.0966 96.185 10.8409 96.185 10.5739C96.185 10.267 96.1112 10.0014 95.9634 9.77699C95.8185 9.55256 95.6197 9.37926 95.3668 9.2571C95.114 9.13494 94.8299 9.07386 94.5146 9.07386C94.1793 9.07386 93.8867 9.14347 93.6367 9.28267C93.3896 9.41903 93.1978 9.6108 93.0614 9.85795C92.9279 10.1051 92.8612 10.3949 92.8612 10.7273H91.8555C91.8555 10.2159 91.9734 9.76705 92.2092 9.38068C92.445 8.99432 92.766 8.69318 93.1722 8.47727C93.5813 8.26136 94.0401 8.15341 94.5487 8.15341C95.06 8.15341 95.5131 8.26136 95.908 8.47727C96.3029 8.69318 96.6126 8.98437 96.837 9.35085C97.0614 9.71733 97.1737 10.125 97.1737 10.5739C97.1737 10.8949 97.1154 11.2088 96.9989 11.5156C96.8853 11.8196 96.6864 12.1591 96.4023 12.5341C96.1211 12.9062 95.7305 13.3608 95.2305 13.8977L93.2702 15.9943V16.0625H97.3271V17H91.8214Z" fill="#DFDFDF" fill-opacity="0.8"/>
</svg>
