<svg width="142" height="25" viewBox="0 0 142 25" fill="none" xmlns="http://www.w3.org/2000/svg">
<rect x="0.333252" width="141.667" height="25" rx="5" fill="#ABABAB" fill-opacity="0.2"/>
<path d="M50.1251 10.4545C50.0739 10.0227 49.8666 9.6875 49.5029 9.44886C49.1393 9.21023 48.6933 9.09091 48.1649 9.09091C47.7785 9.09091 47.4404 9.15341 47.1506 9.27841C46.8637 9.40341 46.6393 9.57528 46.4774 9.79403C46.3183 10.0128 46.2387 10.2614 46.2387 10.5398C46.2387 10.7727 46.2941 10.973 46.4049 11.1406C46.5185 11.3054 46.6634 11.4432 46.8396 11.554C47.0157 11.6619 47.2004 11.7514 47.3935 11.8224C47.5867 11.8906 47.7643 11.946 47.9262 11.9886L48.8126 12.2273C49.0399 12.2869 49.2927 12.3693 49.5711 12.4744C49.8524 12.5795 50.1208 12.723 50.3765 12.9048C50.635 13.0838 50.8481 13.3139 51.0157 13.5952C51.1833 13.8764 51.2671 14.2216 51.2671 14.6307C51.2671 15.1023 51.1435 15.5284 50.8964 15.9091C50.6521 16.2898 50.2941 16.5923 49.8225 16.8168C49.3538 17.0412 48.7842 17.1534 48.1137 17.1534C47.4887 17.1534 46.9475 17.0526 46.4901 16.8509C46.0356 16.6491 45.6776 16.3679 45.4163 16.0071C45.1577 15.6463 45.0114 15.2273 44.9774 14.75H46.0683C46.0967 15.0795 46.2075 15.3523 46.4006 15.5682C46.5967 15.7812 46.8438 15.9403 47.1421 16.0455C47.4433 16.1477 47.7671 16.1989 48.1137 16.1989C48.5171 16.1989 48.8793 16.1335 49.2004 16.0028C49.5214 15.8693 49.7756 15.6847 49.9631 15.4489C50.1506 15.2102 50.2444 14.9318 50.2444 14.6136C50.2444 14.3239 50.1634 14.0881 50.0015 13.9062C49.8396 13.7244 49.6265 13.5767 49.3623 13.4631C49.0981 13.3494 48.8126 13.25 48.5058 13.1648L47.4319 12.858C46.7501 12.6619 46.2103 12.3821 45.8126 12.0185C45.4149 11.6548 45.216 11.179 45.216 10.5909C45.216 10.1023 45.3481 9.67614 45.6123 9.3125C45.8793 8.94602 46.2373 8.66193 46.6862 8.46023C47.1379 8.25568 47.6421 8.15341 48.1989 8.15341C48.7614 8.15341 49.2614 8.25426 49.6989 8.45597C50.1364 8.65483 50.483 8.92756 50.7387 9.27415C50.9972 9.62074 51.1336 10.0142 51.1478 10.4545H50.1251ZM55.6126 17.1364C54.982 17.1364 54.4379 16.9972 53.9805 16.7188C53.526 16.4375 53.1751 16.0455 52.928 15.5426C52.6837 15.0369 52.5615 14.4489 52.5615 13.7784C52.5615 13.108 52.6837 12.517 52.928 12.0057C53.1751 11.4915 53.5189 11.0909 53.9592 10.804C54.4024 10.5142 54.9195 10.3693 55.5104 10.3693C55.8513 10.3693 56.1879 10.4261 56.5203 10.5398C56.8527 10.6534 57.1553 10.8381 57.428 11.0938C57.7007 11.3466 57.918 11.6818 58.08 12.0994C58.2419 12.517 58.3229 13.0312 58.3229 13.642V14.0682H53.2774V13.1989H57.3001C57.3001 12.8295 57.2263 12.5 57.0786 12.2102C56.9337 11.9205 56.7263 11.6918 56.4564 11.5241C56.1894 11.3565 55.874 11.2727 55.5104 11.2727C55.1098 11.2727 54.7632 11.3722 54.4706 11.571C54.1808 11.767 53.9578 12.0227 53.8016 12.3381C53.6453 12.6534 53.5672 12.9915 53.5672 13.3523V13.9318C53.5672 14.4261 53.6524 14.8452 53.8229 15.1889C53.9962 15.5298 54.2362 15.7898 54.543 15.9688C54.8499 16.1449 55.2064 16.233 55.6126 16.233C55.8769 16.233 56.1155 16.196 56.3286 16.1222C56.5445 16.0455 56.7305 15.9318 56.8868 15.7812C57.043 15.6278 57.1638 15.4375 57.249 15.2102L58.2206 15.483C58.1183 15.8125 57.9465 16.1023 57.705 16.3523C57.4635 16.5994 57.1652 16.7926 56.8101 16.9318C56.455 17.0682 56.0558 17.1364 55.6126 17.1364ZM62.5118 17.1364C61.8982 17.1364 61.3698 16.9915 60.9266 16.7017C60.4834 16.4119 60.1425 16.0128 59.9038 15.5043C59.6652 14.9957 59.5459 14.4148 59.5459 13.7614C59.5459 13.0966 59.668 12.5099 59.9124 12.0014C60.1595 11.4901 60.5033 11.0909 60.9436 10.804C61.3868 10.5142 61.9038 10.3693 62.4948 10.3693C62.955 10.3693 63.3698 10.4545 63.7391 10.625C64.1084 10.7955 64.4109 11.0341 64.6467 11.3409C64.8825 11.6477 65.0288 12.0057 65.0857 12.4148H64.08C64.0033 12.1165 63.8328 11.8523 63.5686 11.6222C63.3073 11.3892 62.955 11.2727 62.5118 11.2727C62.1198 11.2727 61.776 11.375 61.4805 11.5795C61.1879 11.7812 60.9592 12.0668 60.7945 12.4361C60.6325 12.8026 60.5516 13.233 60.5516 13.7273C60.5516 14.233 60.6311 14.6733 60.7902 15.0483C60.9521 15.4233 61.1794 15.7145 61.472 15.9219C61.7675 16.1293 62.1141 16.233 62.5118 16.233C62.7732 16.233 63.0104 16.1875 63.2234 16.0966C63.4365 16.0057 63.6169 15.875 63.7646 15.7045C63.9124 15.5341 64.0175 15.3295 64.08 15.0909H65.0857C65.0288 15.4773 64.8882 15.8253 64.6638 16.1349C64.4422 16.4418 64.1482 16.6861 63.7817 16.8679C63.418 17.0469 62.9948 17.1364 62.5118 17.1364ZM69.4024 10.4545V11.3068H66.0104V10.4545H69.4024ZM66.999 8.88636H68.0047V15.125C68.0047 15.4091 68.0459 15.6222 68.1283 15.7642C68.2135 15.9034 68.3215 15.9972 68.4521 16.0455C68.5857 16.0909 68.7263 16.1136 68.874 16.1136C68.9848 16.1136 69.0757 16.108 69.1467 16.0966C69.2178 16.0824 69.2746 16.071 69.3172 16.0625L69.5217 16.9659C69.4536 16.9915 69.3584 17.017 69.2362 17.0426C69.1141 17.071 68.9592 17.0852 68.7717 17.0852C68.4876 17.0852 68.2092 17.0241 67.9365 16.902C67.6666 16.7798 67.4422 16.5938 67.2632 16.3438C67.0871 16.0938 66.999 15.7784 66.999 15.3977V8.88636ZM70.9152 17V10.4545H71.9209V17H70.9152ZM71.4266 9.36364C71.2305 9.36364 71.0615 9.29688 70.9195 9.16335C70.7803 9.02983 70.7107 8.86932 70.7107 8.68182C70.7107 8.49432 70.7803 8.33381 70.9195 8.20028C71.0615 8.06676 71.2305 8 71.4266 8C71.6226 8 71.7902 8.06676 71.9294 8.20028C72.0715 8.33381 72.1425 8.49432 72.1425 8.68182C72.1425 8.86932 72.0715 9.02983 71.9294 9.16335C71.7902 9.29688 71.6226 9.36364 71.4266 9.36364ZM76.422 17.1364C75.831 17.1364 75.3126 16.9957 74.8666 16.7145C74.4234 16.4332 74.0768 16.0398 73.8268 15.5341C73.5796 15.0284 73.456 14.4375 73.456 13.7614C73.456 13.0795 73.5796 12.4844 73.8268 11.9759C74.0768 11.4673 74.4234 11.0724 74.8666 10.7912C75.3126 10.5099 75.831 10.3693 76.422 10.3693C77.0129 10.3693 77.5299 10.5099 77.9731 10.7912C78.4191 11.0724 78.7657 11.4673 79.0129 11.9759C79.2629 12.4844 79.3879 13.0795 79.3879 13.7614C79.3879 14.4375 79.2629 15.0284 79.0129 15.5341C78.7657 16.0398 78.4191 16.4332 77.9731 16.7145C77.5299 16.9957 77.0129 17.1364 76.422 17.1364ZM76.422 16.233C76.8708 16.233 77.2401 16.1179 77.5299 15.8878C77.8197 15.6577 78.0342 15.3551 78.1734 14.9801C78.3126 14.6051 78.3822 14.1989 78.3822 13.7614C78.3822 13.3239 78.3126 12.9162 78.1734 12.5384C78.0342 12.1605 77.8197 11.8551 77.5299 11.6222C77.2401 11.3892 76.8708 11.2727 76.422 11.2727C75.9731 11.2727 75.6038 11.3892 75.314 11.6222C75.0242 11.8551 74.8097 12.1605 74.6705 12.5384C74.5313 12.9162 74.4617 13.3239 74.4617 13.7614C74.4617 14.1989 74.5313 14.6051 74.6705 14.9801C74.8097 15.3551 75.0242 15.6577 75.314 15.8878C75.6038 16.1179 75.9731 16.233 76.422 16.233ZM81.9287 13.0625V17H80.923V10.4545H81.8946V11.4773H81.9798C82.1332 11.1449 82.3662 10.8778 82.6787 10.6761C82.9912 10.4716 83.3946 10.3693 83.8889 10.3693C84.3321 10.3693 84.7199 10.4602 85.0523 10.642C85.3847 10.821 85.6432 11.0938 85.8278 11.4602C86.0125 11.8239 86.1048 12.2841 86.1048 12.8409V17H85.0992V12.9091C85.0992 12.3949 84.9656 11.9943 84.6986 11.7074C84.4315 11.4176 84.0651 11.2727 83.5992 11.2727C83.2781 11.2727 82.9912 11.3423 82.7384 11.4815C82.4884 11.6207 82.2909 11.8239 82.146 12.0909C82.0011 12.358 81.9287 12.6818 81.9287 13.0625ZM94.2494 17.1193C93.6869 17.1193 93.1854 17.0227 92.7451 16.8295C92.3076 16.6364 91.9596 16.3679 91.7011 16.0241C91.4454 15.6776 91.3062 15.2756 91.2835 14.8182H92.3573C92.38 15.0994 92.4766 15.3423 92.6471 15.5469C92.8175 15.7486 93.0406 15.9048 93.3161 16.0156C93.5917 16.1264 93.8971 16.1818 94.2323 16.1818C94.6073 16.1818 94.9397 16.1165 95.2295 15.9858C95.5193 15.8551 95.7465 15.6733 95.9113 15.4403C96.0761 15.2074 96.1585 14.9375 96.1585 14.6307C96.1585 14.3097 96.0789 14.027 95.9198 13.7827C95.7607 13.5355 95.5278 13.3423 95.221 13.2031C94.9141 13.0639 94.5391 12.9943 94.096 12.9943H93.3971V12.0568H94.096C94.4425 12.0568 94.7465 11.9943 95.0079 11.8693C95.2721 11.7443 95.4781 11.5682 95.6258 11.3409C95.7764 11.1136 95.8516 10.8466 95.8516 10.5398C95.8516 10.2443 95.7863 9.98722 95.6556 9.76847C95.5249 9.54972 95.3403 9.37926 95.1016 9.2571C94.8658 9.13494 94.5874 9.07386 94.2664 9.07386C93.9653 9.07386 93.6812 9.12926 93.4141 9.24006C93.1499 9.34801 92.934 9.50568 92.7664 9.71307C92.5988 9.91761 92.5079 10.1648 92.4937 10.4545H91.471C91.488 9.99716 91.6258 9.59659 91.8843 9.25284C92.1428 8.90625 92.4809 8.63636 92.8985 8.44318C93.319 8.25 93.7806 8.15341 94.2835 8.15341C94.8232 8.15341 95.2863 8.26278 95.6727 8.48153C96.059 8.69744 96.3559 8.98295 96.5633 9.33807C96.7707 9.69318 96.8744 10.0767 96.8744 10.4886C96.8744 10.9801 96.7451 11.3991 96.4866 11.7457C96.2309 12.0923 95.8829 12.3324 95.4425 12.4659V12.5341C95.9937 12.625 96.4241 12.8594 96.7337 13.2372C97.0434 13.6122 97.1982 14.0767 97.1982 14.6307C97.1982 15.1051 97.069 15.5312 96.8104 15.9091C96.5548 16.2841 96.2053 16.5795 95.7622 16.7955C95.319 17.0114 94.8147 17.1193 94.2494 17.1193Z" fill="#DFDFDF" fill-opacity="0.8"/>
</svg>
