<svg width="150" height="25" viewBox="0 0 150 25" fill="none" xmlns="http://www.w3.org/2000/svg">
<rect width="149.667" height="25" rx="5" fill="#ABABAB" fill-opacity="0.2"/>
<path d="M53.7918 10.4545C53.7407 10.0227 53.5333 9.6875 53.1696 9.44886C52.806 9.21023 52.36 9.09091 51.8316 9.09091C51.4452 9.09091 51.1071 9.15341 50.8174 9.27841C50.5304 9.40341 50.306 9.57528 50.1441 9.79403C49.985 10.0128 49.9054 10.2614 49.9054 10.5398C49.9054 10.7727 49.9608 10.973 50.0716 11.1406C50.1853 11.3054 50.3301 11.4432 50.5063 11.554C50.6824 11.6619 50.8671 11.7514 51.0603 11.8224C51.2534 11.8906 51.431 11.946 51.5929 11.9886L52.4793 12.2273C52.7066 12.2869 52.9594 12.3693 53.2378 12.4744C53.5191 12.5795 53.7875 12.723 54.0432 12.9048C54.3017 13.0838 54.5148 13.3139 54.6824 13.5952C54.85 13.8764 54.9338 14.2216 54.9338 14.6307C54.9338 15.1023 54.8103 15.5284 54.5631 15.9091C54.3188 16.2898 53.9608 16.5923 53.4892 16.8168C53.0205 17.0412 52.4509 17.1534 51.7804 17.1534C51.1554 17.1534 50.6142 17.0526 50.1568 16.8509C49.7023 16.6491 49.3443 16.3679 49.083 16.0071C48.8245 15.6463 48.6782 15.2273 48.6441 14.75H49.735C49.7634 15.0795 49.8742 15.3523 50.0674 15.5682C50.2634 15.7812 50.5105 15.9403 50.8088 16.0455C51.11 16.1477 51.4338 16.1989 51.7804 16.1989C52.1838 16.1989 52.546 16.1335 52.8671 16.0028C53.1881 15.8693 53.4424 15.6847 53.6299 15.4489C53.8174 15.2102 53.9111 14.9318 53.9111 14.6136C53.9111 14.3239 53.8301 14.0881 53.6682 13.9062C53.5063 13.7244 53.2932 13.5767 53.029 13.4631C52.7648 13.3494 52.4793 13.25 52.1725 13.1648L51.0986 12.858C50.4168 12.6619 49.877 12.3821 49.4793 12.0185C49.0816 11.6548 48.8827 11.179 48.8827 10.5909C48.8827 10.1023 49.0148 9.67614 49.279 9.3125C49.546 8.94602 49.904 8.66193 50.3529 8.46023C50.8046 8.25568 51.3088 8.15341 51.8657 8.15341C52.4282 8.15341 52.9282 8.25426 53.3657 8.45597C53.8032 8.65483 54.1497 8.92756 54.4054 9.27415C54.6639 9.62074 54.8003 10.0142 54.8145 10.4545H53.7918ZM59.2794 17.1364C58.6487 17.1364 58.1046 16.9972 57.6473 16.7188C57.1927 16.4375 56.8419 16.0455 56.5947 15.5426C56.3504 15.0369 56.2282 14.4489 56.2282 13.7784C56.2282 13.108 56.3504 12.517 56.5947 12.0057C56.8419 11.4915 57.1856 11.0909 57.6259 10.804C58.0691 10.5142 58.5862 10.3693 59.1771 10.3693C59.518 10.3693 59.8546 10.4261 60.187 10.5398C60.5194 10.6534 60.822 10.8381 61.0947 11.0938C61.3674 11.3466 61.5848 11.6818 61.7467 12.0994C61.9086 12.517 61.9896 13.0312 61.9896 13.642V14.0682H56.9441V13.1989H60.9669C60.9669 12.8295 60.893 12.5 60.7453 12.2102C60.6004 11.9205 60.393 11.6918 60.1231 11.5241C59.8561 11.3565 59.5407 11.2727 59.1771 11.2727C58.7765 11.2727 58.4299 11.3722 58.1373 11.571C57.8475 11.767 57.6245 12.0227 57.4683 12.3381C57.312 12.6534 57.2339 12.9915 57.2339 13.3523V13.9318C57.2339 14.4261 57.3191 14.8452 57.4896 15.1889C57.6629 15.5298 57.9029 15.7898 58.2098 15.9688C58.5166 16.1449 58.8731 16.233 59.2794 16.233C59.5436 16.233 59.7822 16.196 59.9953 16.1222C60.2112 16.0455 60.3973 15.9318 60.5535 15.7812C60.7098 15.6278 60.8305 15.4375 60.9157 15.2102L61.8873 15.483C61.785 15.8125 61.6132 16.1023 61.3717 16.3523C61.1302 16.5994 60.8319 16.7926 60.4768 16.9318C60.1217 17.0682 59.7225 17.1364 59.2794 17.1364ZM66.1785 17.1364C65.5649 17.1364 65.0365 16.9915 64.5933 16.7017C64.1501 16.4119 63.8092 16.0128 63.5706 15.5043C63.3319 14.9957 63.2126 14.4148 63.2126 13.7614C63.2126 13.0966 63.3348 12.5099 63.5791 12.0014C63.8262 11.4901 64.17 11.0909 64.6103 10.804C65.0535 10.5142 65.5706 10.3693 66.1615 10.3693C66.6217 10.3693 67.0365 10.4545 67.4058 10.625C67.7751 10.7955 68.0777 11.0341 68.3134 11.3409C68.5492 11.6477 68.6956 12.0057 68.7524 12.4148H67.7467C67.67 12.1165 67.4995 11.8523 67.2353 11.6222C66.974 11.3892 66.6217 11.2727 66.1785 11.2727C65.7865 11.2727 65.4427 11.375 65.1473 11.5795C64.8546 11.7812 64.6259 12.0668 64.4612 12.4361C64.2992 12.8026 64.2183 13.233 64.2183 13.7273C64.2183 14.233 64.2978 14.6733 64.4569 15.0483C64.6188 15.4233 64.8461 15.7145 65.1387 15.9219C65.4342 16.1293 65.7808 16.233 66.1785 16.233C66.4399 16.233 66.6771 16.1875 66.8902 16.0966C67.1032 16.0057 67.2836 15.875 67.4313 15.7045C67.5791 15.5341 67.6842 15.3295 67.7467 15.0909H68.7524C68.6956 15.4773 68.5549 15.8253 68.3305 16.1349C68.1089 16.4418 67.8149 16.6861 67.4484 16.8679C67.0848 17.0469 66.6615 17.1364 66.1785 17.1364ZM73.0691 10.4545V11.3068H69.6771V10.4545H73.0691ZM70.6657 8.88636H71.6714V15.125C71.6714 15.4091 71.7126 15.6222 71.795 15.7642C71.8802 15.9034 71.9882 15.9972 72.1188 16.0455C72.2524 16.0909 72.393 16.1136 72.5407 16.1136C72.6515 16.1136 72.7424 16.108 72.8134 16.0966C72.8845 16.0824 72.9413 16.071 72.9839 16.0625L73.1884 16.9659C73.1203 16.9915 73.0251 17.017 72.9029 17.0426C72.7808 17.071 72.6259 17.0852 72.4384 17.0852C72.1544 17.0852 71.8759 17.0241 71.6032 16.902C71.3333 16.7798 71.1089 16.5938 70.9299 16.3438C70.7538 16.0938 70.6657 15.7784 70.6657 15.3977V8.88636ZM74.5819 17V10.4545H75.5876V17H74.5819ZM75.0933 9.36364C74.8973 9.36364 74.7282 9.29688 74.5862 9.16335C74.447 9.02983 74.3774 8.86932 74.3774 8.68182C74.3774 8.49432 74.447 8.33381 74.5862 8.20028C74.7282 8.06676 74.8973 8 75.0933 8C75.2893 8 75.4569 8.06676 75.5961 8.20028C75.7382 8.33381 75.8092 8.49432 75.8092 8.68182C75.8092 8.86932 75.7382 9.02983 75.5961 9.16335C75.4569 9.29688 75.2893 9.36364 75.0933 9.36364ZM80.0887 17.1364C79.4978 17.1364 78.9793 16.9957 78.5333 16.7145C78.0901 16.4332 77.7435 16.0398 77.4935 15.5341C77.2463 15.0284 77.1228 14.4375 77.1228 13.7614C77.1228 13.0795 77.2463 12.4844 77.4935 11.9759C77.7435 11.4673 78.0901 11.0724 78.5333 10.7912C78.9793 10.5099 79.4978 10.3693 80.0887 10.3693C80.6796 10.3693 81.1966 10.5099 81.6398 10.7912C82.0858 11.0724 82.4324 11.4673 82.6796 11.9759C82.9296 12.4844 83.0546 13.0795 83.0546 13.7614C83.0546 14.4375 82.9296 15.0284 82.6796 15.5341C82.4324 16.0398 82.0858 16.4332 81.6398 16.7145C81.1966 16.9957 80.6796 17.1364 80.0887 17.1364ZM80.0887 16.233C80.5375 16.233 80.9068 16.1179 81.1966 15.8878C81.4864 15.6577 81.7009 15.3551 81.8401 14.9801C81.9793 14.6051 82.0489 14.1989 82.0489 13.7614C82.0489 13.3239 81.9793 12.9162 81.8401 12.5384C81.7009 12.1605 81.4864 11.8551 81.1966 11.6222C80.9068 11.3892 80.5375 11.2727 80.0887 11.2727C79.6398 11.2727 79.2705 11.3892 78.9807 11.6222C78.6909 11.8551 78.4764 12.1605 78.3372 12.5384C78.198 12.9162 78.1284 13.3239 78.1284 13.7614C78.1284 14.1989 78.198 14.6051 78.3372 14.9801C78.4764 15.3551 78.6909 15.6577 78.9807 15.8878C79.2705 16.1179 79.6398 16.233 80.0887 16.233ZM85.5954 13.0625V17H84.5897V10.4545H85.5613V11.4773H85.6465C85.8 11.1449 86.0329 10.8778 86.3454 10.6761C86.6579 10.4716 87.0613 10.3693 87.5556 10.3693C87.9988 10.3693 88.3866 10.4602 88.719 10.642C89.0514 10.821 89.3099 11.0938 89.4946 11.4602C89.6792 11.8239 89.7715 12.2841 89.7715 12.8409V17H88.7659V12.9091C88.7659 12.3949 88.6323 11.9943 88.3653 11.7074C88.0983 11.4176 87.7318 11.2727 87.2659 11.2727C86.9448 11.2727 86.6579 11.3423 86.4051 11.4815C86.1551 11.6207 85.9576 11.8239 85.8127 12.0909C85.6679 12.358 85.5954 12.6818 85.5954 13.0625ZM97.9161 17.1193C97.3536 17.1193 96.8522 17.0227 96.4118 16.8295C95.9743 16.6364 95.6263 16.3679 95.3678 16.0241C95.1121 15.6776 94.9729 15.2756 94.9502 14.8182H96.024C96.0468 15.0994 96.1434 15.3423 96.3138 15.5469C96.4843 15.7486 96.7073 15.9048 96.9828 16.0156C97.2584 16.1264 97.5638 16.1818 97.899 16.1818C98.274 16.1818 98.6064 16.1165 98.8962 15.9858C99.186 15.8551 99.4132 15.6733 99.578 15.4403C99.7428 15.2074 99.8252 14.9375 99.8252 14.6307C99.8252 14.3097 99.7456 14.027 99.5865 13.7827C99.4274 13.5355 99.1945 13.3423 98.8877 13.2031C98.5809 13.0639 98.2059 12.9943 97.7627 12.9943H97.0638V12.0568H97.7627C98.1093 12.0568 98.4132 11.9943 98.6746 11.8693C98.9388 11.7443 99.1448 11.5682 99.2925 11.3409C99.4431 11.1136 99.5184 10.8466 99.5184 10.5398C99.5184 10.2443 99.453 9.98722 99.3223 9.76847C99.1916 9.54972 99.007 9.37926 98.7684 9.2571C98.5326 9.13494 98.2541 9.07386 97.9331 9.07386C97.632 9.07386 97.3479 9.12926 97.0809 9.24006C96.8166 9.34801 96.6007 9.50568 96.4331 9.71307C96.2655 9.91761 96.1746 10.1648 96.1604 10.4545H95.1377C95.1547 9.99716 95.2925 9.59659 95.551 9.25284C95.8095 8.90625 96.1476 8.63636 96.5652 8.44318C96.9857 8.25 97.4473 8.15341 97.9502 8.15341C98.4899 8.15341 98.953 8.26278 99.3394 8.48153C99.7257 8.69744 100.023 8.98295 100.23 9.33807C100.437 9.69318 100.541 10.0767 100.541 10.4886C100.541 10.9801 100.412 11.3991 100.153 11.7457C99.8976 12.0923 99.5496 12.3324 99.1093 12.4659V12.5341C99.6604 12.625 100.091 12.8594 100.4 13.2372C100.71 13.6122 100.865 14.0767 100.865 14.6307C100.865 15.1051 100.736 15.5312 100.477 15.9091C100.221 16.2841 99.872 16.5795 99.4289 16.7955C98.9857 17.0114 98.4814 17.1193 97.9161 17.1193Z" fill="#DFDFDF" fill-opacity="0.8"/>
</svg>
