<svg width="17" height="15" viewBox="0 0 17 15" fill="none" xmlns="http://www.w3.org/2000/svg">
<path d="M13.3333 15V13H6.23325C5.18325 13 4.27075 12.6667 3.49575 12C2.72075 11.3333 2.33325 10.5 2.33325 9.5C2.33325 8.5 2.72075 7.66667 3.49575 7C4.27075 6.33333 5.18325 6 6.23325 6H12.5333L9.93325 8.6L11.3333 10L16.3333 5L11.3333 0L9.93325 1.4L12.5333 4H6.23325C4.61658 4 3.22909 4.525 2.07075 5.575C0.912418 6.625 0.333252 7.93333 0.333252 9.5C0.333252 11.0667 0.912418 12.375 2.07075 13.425C3.22909 14.475 4.61658 15 6.23325 15H13.3333Z" fill="#DFDFDF" fill-opacity="0.8"/>
</svg>
