<svg width="17" height="15" viewBox="0 0 17 15" fill="none" xmlns="http://www.w3.org/2000/svg">
<path d="M13.3333 15V13H6.23331C5.18331 13 4.27081 12.6667 3.49581 12C2.72081 11.3333 2.33331 10.5 2.33331 9.5C2.33331 8.5 2.72081 7.66667 3.49581 7C4.27081 6.33333 5.18331 6 6.23331 6H12.5333L9.93331 8.6L11.3333 10L16.3333 5L11.3333 0L9.93331 1.4L12.5333 4H6.23331C4.61665 4 3.22915 4.525 2.07081 5.575C0.912479 6.625 0.333313 7.93333 0.333313 9.5C0.333313 11.0667 0.912479 12.375 2.07081 13.425C3.22915 14.475 4.61665 15 6.23331 15H13.3333Z" fill="#DFDFDF" fill-opacity="0.8"/>
</svg>
