<svg width="17" height="15" viewBox="0 0 17 15" fill="none" xmlns="http://www.w3.org/2000/svg">
<path d="M3.66667 15V13H10.7667C11.8167 13 12.7292 12.6667 13.5042 12C14.2792 11.3333 14.6667 10.5 14.6667 9.5C14.6667 8.5 14.2792 7.66667 13.5042 7C12.7292 6.33333 11.8167 6 10.7667 6H4.46667L7.06667 8.6L5.66667 10L0.666672 5L5.66667 0L7.06667 1.4L4.46667 4H10.7667C12.3833 4 13.7708 4.525 14.9292 5.575C16.0875 6.625 16.6667 7.93333 16.6667 9.5C16.6667 11.0667 16.0875 12.375 14.9292 13.425C13.7708 14.475 12.3833 15 10.7667 15H3.66667Z" fill="#DFDFDF" fill-opacity="0.8"/>
</svg>
