<svg width="17" height="15" viewBox="0 0 17 15" fill="none" xmlns="http://www.w3.org/2000/svg">
<path d="M3.66663 15V13H10.7666C11.8166 13 12.7291 12.6667 13.5041 12C14.2791 11.3333 14.6666 10.5 14.6666 9.5C14.6666 8.5 14.2791 7.66667 13.5041 7C12.7291 6.33333 11.8166 6 10.7666 6H4.46663L7.06663 8.6L5.66663 10L0.666626 5L5.66663 0L7.06663 1.4L4.46663 4H10.7666C12.3833 4 13.7708 4.525 14.9291 5.575C16.0875 6.625 16.6666 7.93333 16.6666 9.5C16.6666 11.0667 16.0875 12.375 14.9291 13.425C13.7708 14.475 12.3833 15 10.7666 15H3.66663Z" fill="#DFDFDF" fill-opacity="0.8"/>
</svg>
